<svg xmlns="http://www.w3.org/2000/svg" viewBox="0 0 93.01 25.09"><defs><style>.cls-1{fill:#1b3d3a;}</style></defs><g id="Layer_2" data-name="Layer 2"><g id="Layer_1-2" data-name="Layer 1"><circle class="cls-1" cx="24" cy="23.76" r="1.05"/><path class="cls-1" d="M24.11,17.76c-1.94-1.88-4.36-2.66-6.31-2a3.8,3.8,0,0,0-1.39.78,12.75,12.75,0,0,1-.77-2.05c-.18-.62-.32-1.22-.44-1.79a11.8,11.8,0,0,0,6.17-3C23.61,7.5,24.7,4.37,24.59.35V0h-.35C24,0,18.7.25,15.88,4.14c-1.49,2.05-2,4.71-1.49,7.93a11,11,0,0,1-1.5.12h0a12.82,12.82,0,0,0-2.15.12,17.43,17.43,0,0,0-.45-1.87A13.33,13.33,0,0,0,9.33,8a4.87,4.87,0,0,0,.95-2.23C10.88,2.46,7.88,1,6.6.34L6.35.21a1.89,1.89,0,0,0-2,.14C3.64.92,3.37,2,3.6,3.51c-.94.05-3,.27-3.51,1.4-.27.67.07,1.49,1,2.41,1.94,1.89,4.35,2.66,6.31,2a4.13,4.13,0,0,0,1.39-.78,12.75,12.75,0,0,1,.77,2.05c.17.61.32,1.21.43,1.79a11.81,11.81,0,0,0-6.17,3C1.61,17.58.53,20.72.63,24.73v.36l.35,0c.23,0,5.53-.24,8.35-4.12,1.49-2.05,2-4.71,1.49-7.94.64-.08,1.18-.11,1.53-.12h0a13.38,13.38,0,0,0,2.14-.11c.12.6.27,1.23.45,1.87a13.51,13.51,0,0,0,.93,2.4,5,5,0,0,0-1,2.23c-.59,3.35,2.4,4.83,3.68,5.46l.26.13a2,2,0,0,0,.88.21,1.74,1.74,0,0,0,1.07-.35c.75-.56,1-1.62.8-3.16.93,0,3-.27,3.5-1.4C25.41,19.5,25.06,18.69,24.11,17.76ZM7.21,8.69c-1.7.55-3.85-.17-5.6-1.87C1.1,6.33.55,5.65.74,5.18c.29-.71,2.13-1,3.24-1a7.31,7.31,0,0,1,4.5,3.73A3.22,3.22,0,0,1,7.21,8.69ZM4.31,3.56c-.21-1.32,0-2.24.5-2.65A1.14,1.14,0,0,1,6,.84L6.29,1c1.23.61,3.81,1.88,3.3,4.71A4.5,4.5,0,0,1,9,7.35,7.9,7.9,0,0,0,4.31,3.56Zm4.47,17c-2.22,3-6.24,3.69-7.45,3.81,0-3.62,1-6.46,3-8.42a11.1,11.1,0,0,1,5.8-2.8C10.61,16.15,10.15,18.64,8.78,20.53Zm7.66-16C18.66,1.5,22.68.87,23.9.74c0,3.63-1,6.46-3,8.43A11.14,11.14,0,0,1,15.08,12C14.62,8.93,15.07,6.45,16.44,4.55Zm4,19.62a1.14,1.14,0,0,1-1.21.08l-.27-.14c-1.23-.61-3.8-1.88-3.3-4.7a4.38,4.38,0,0,1,.64-1.67,7.88,7.88,0,0,0,4.64,3.78C21.13,22.85,21,23.76,20.41,24.17Zm4.08-4.26c-.29.71-2.13,1-3.24,1a7.18,7.18,0,0,1-4.5-3.73A3.1,3.1,0,0,1,18,16.4c1.71-.56,3.86.16,5.61,1.86C24.12,18.75,24.68,19.43,24.49,19.91Z"/><circle class="cls-1" cx="1.31" cy="1.24" r="1.05"/><path class="cls-1" d="M33.6,19.6H31.92V4.87H33.6v6.36h7.81V4.87h1.68V19.6H41.41v-8H33.6Z"/><path class="cls-1" d="M46.51,19.6H46L51.78,4.87h1.07L58.69,19.6H57.05l-2.5-6.32H49ZM51.76,6.21l-2.62,6.7h5.27Z"/><path class="cls-1" d="M62.13,19.6V4.87h6.21a4.39,4.39,0,0,1,2.18.52A3.74,3.74,0,0,1,72,6.84a4.29,4.29,0,0,1,.51,2.1,4.14,4.14,0,0,1-.56,2.14,4,4,0,0,1-1.53,1.48,4.39,4.39,0,0,1-2.17.54,5.69,5.69,0,0,1-1.39-.17l6,6.67H71l-7.2-8.21V19.6Zm7.93-8A3.73,3.73,0,0,0,71,9a4.22,4.22,0,0,0-.44-1.93,3.39,3.39,0,0,0-1.25-1.35,3.5,3.5,0,0,0-1.86-.5H63.81V11a6.37,6.37,0,0,0,3.93,1.64A3,3,0,0,0,70.06,11.6Z"/><path class="cls-1" d="M78.06,19.6H76.39V4.87h1.67Z"/><path class="cls-1" d="M82.26,19.6V4.87h6.22a4.36,4.36,0,0,1,2.17.52A3.68,3.68,0,0,1,92.1,6.84a4.29,4.29,0,0,1,.51,2.1,4.13,4.13,0,0,1-.55,2.14,4,4,0,0,1-1.54,1.48,4.39,4.39,0,0,1-2.17.54A5.55,5.55,0,0,1,87,12.93l6,6.67H91.14l-7.2-8.21V19.6Zm7.93-8A3.73,3.73,0,0,0,91.08,9a4.22,4.22,0,0,0-.44-1.93,3.32,3.32,0,0,0-1.25-1.35,3.5,3.5,0,0,0-1.86-.5H83.94V11a6.37,6.37,0,0,0,3.93,1.64A3,3,0,0,0,90.19,11.6Z"/><path class="cls-1" d="M32.26,22.63c0-.15.12-.26.33-.26a.76.76,0,0,1,.58.29l0-.27a1,1,0,0,0-.6-.16.6.6,0,0,0-.66.55c0,.61,1.11.57,1.11,1,0,.2-.17.35-.5.35a.69.69,0,0,1-.55-.28l-.1.27a1.31,1.31,0,0,0,.63.16c.59,0,.84-.26.84-.59C33.39,23.05,32.26,23.16,32.26,22.63Z"/><path class="cls-1" d="M35.17,23.46c0,.46-.22.69-.48.69s-.48-.23-.48-.7.21-.69.48-.69a.85.85,0,0,1,.48.15Zm0-.69a.93.93,0,0,0-.58-.17.86.86,0,0,0,0,1.71.57.57,0,0,0,.53-.31l.1.28h.23V22.63h-.23Z"/><path class="cls-1" d="M37,22.6a1,1,0,0,0-.57.17l-.06-.14h-.23v1.65h.33V22.91a.85.85,0,0,1,.48-.15c.21,0,.48,0,.48.49v1h.33v-1C37.74,22.78,37.42,22.6,37,22.6Z"/><path class="cls-1" d="M38.45,22.21a.2.2,0,0,0-.2.2.21.21,0,0,0,.2.2.84.84,0,0,1-.2.33h.12a.65.65,0,0,0,.28-.53A.2.2,0,0,0,38.45,22.21Z"/><path class="cls-1" d="M40.41,23.46c0,.46-.21.69-.48.69s-.48-.23-.48-.7.22-.69.48-.69a.85.85,0,0,1,.48.15Zm.06-.69a1,1,0,0,0-.59-.17.86.86,0,0,0,0,1.71.57.57,0,0,0,.53-.31l.11.28h.22V22.63h-.22Z"/><path class="cls-1" d="M42.12,24.19c-.2,0-.28-.17-.28-.48v-.93h.53v-.15h-.53v-.37h-.22l-.11.37h-.24v.15h.24v.93a.55.55,0,0,0,.56.6.54.54,0,0,0,.4-.13V24h0A.41.41,0,0,1,42.12,24.19Z"/><polygon class="cls-1" points="44.8 24.02 44.3 22.64 43.95 22.64 44.57 24.27 44.88 24.27 45.55 22.63 45.36 22.63 44.8 24.02"/><path class="cls-1" d="M47.19,23.46c0,.46-.22.69-.49.69s-.48-.23-.48-.7.22-.69.48-.69a.91.91,0,0,1,.49.15Zm.05-.69a1,1,0,0,0-.59-.17.86.86,0,0,0,0,1.71.59.59,0,0,0,.54-.31l.1.28h.23V22.63h-.23Z"/><path class="cls-1" d="M50.45,23.46c0,.46-.21.69-.48.69s-.48-.23-.48-.69.22-.7.48-.7a.85.85,0,0,1,.48.15Zm0-.71a.88.88,0,0,0-.53-.15.86.86,0,0,0,0,1.71.57.57,0,0,0,.53-.31h0v.28a.49.49,0,0,1-.53.48.73.73,0,0,1-.5-.2h-.05v.19a1.26,1.26,0,0,0,.6.13.73.73,0,0,0,.81-.65V22.64H50.5Z"/><path class="cls-1" d="M52.14,24.15c-.27,0-.48-.23-.48-.7s.22-.69.48-.69.48.23.48.7S52.4,24.15,52.14,24.15Zm0-1.55a.86.86,0,1,0,.81.86A.83.83,0,0,0,52.14,22.6Z"/><path class="cls-1" d="M53.62,23a.19.19,0,0,0,.2-.19.2.2,0,0,0-.19-.2.75.75,0,0,1,.19-.34h-.11a.65.65,0,0,0-.29.54A.19.19,0,0,0,53.62,23Z"/><polygon class="cls-1" points="54.58 24.13 55.59 22.75 55.59 22.64 54.28 22.64 54.28 22.78 55.25 22.78 54.24 24.14 54.24 24.27 55.63 24.27 55.63 24.13 54.58 24.13"/><path class="cls-1" d="M57.32,23.46c0,.46-.21.69-.48.69s-.48-.23-.48-.7.22-.69.48-.69a.85.85,0,0,1,.48.15Zm.06-.69a1,1,0,0,0-.59-.17.86.86,0,0,0,0,1.71.57.57,0,0,0,.53-.31l.11.28h.22V22.63h-.22Z"/><rect class="cls-1" x="58.27" y="22.03" width="0.33" height="2.25"/><rect class="cls-1" x="59.22" y="22.03" width="0.33" height="2.25"/><path class="cls-1" d="M60.35,22a.17.17,0,0,1,.18.18.19.19,0,0,1-.05.13.18.18,0,0,1-.13.06.21.21,0,0,1-.19-.19.18.18,0,0,1,.06-.13A.19.19,0,0,1,60.35,22Zm-.17.64h.33v1.64h-.33Z"/><polygon class="cls-1" points="62.44 22.68 62.44 22.64 62.28 22.64 61.48 23.48 61.48 22.03 61.15 22.03 61.15 24.27 61.48 24.27 61.48 23.73 61.79 23.39 62.27 24.27 62.6 24.27 62.02 23.16 62.44 22.68"/><path class="cls-1" d="M64.93,24.19c-.2,0-.28-.17-.28-.48v-.93h.53v-.15h-.53v-.37h-.22l-.11.37h-.24v.15h.24v.93a.55.55,0,0,0,.56.6.56.56,0,0,0,.4-.13V24h-.06A.38.38,0,0,1,64.93,24.19Z"/><path class="cls-1" d="M66.55,24.31a.94.94,0,0,0,.57-.17l.06.14h.23V22.63h-.33V24a.85.85,0,0,1-.48.15c-.21,0-.48,0-.48-.49v-1h-.33v1C65.79,24.13,66.12,24.31,66.55,24.31Z"/><path class="cls-1" d="M68.79,24.19c-.2,0-.27-.17-.27-.48v-.93H69v-.15h-.52v-.37h-.23l-.11.37h-.24v.15h.24v.93a.55.55,0,0,0,.56.6.54.54,0,0,0,.4-.13V24h0A.41.41,0,0,1,68.79,24.19Z"/><path class="cls-1" d="M70.81,23.46c0,.46-.21.69-.48.69s-.48-.23-.48-.7.22-.69.48-.69a.85.85,0,0,1,.48.15Zm0-.69a.93.93,0,0,0-.58-.17.86.86,0,0,0,0,1.71.57.57,0,0,0,.53-.31l.11.28h.22V22.63h-.22Z"/><path class="cls-1" d="M71.91,23c0-.13.13-.19.31-.19a.5.5,0,0,1,.47.28h.06v-.31a.91.91,0,0,0-.51-.13.52.52,0,0,0-.57.46c0,.54.92.49.92.84,0,.16-.11.25-.41.25a.5.5,0,0,1-.45-.28h-.06v.31a1.07,1.07,0,0,0,.51.13c.48,0,.68-.22.68-.48C72.86,23.27,71.91,23.25,71.91,23Z"/><path class="cls-1" d="M74.25,22.6a.88.88,0,0,0-.53.15V22h-.33v2.25h.33V22.91a.85.85,0,0,1,.48-.15c.21,0,.48,0,.48.49v1H75v-1C75,22.78,74.68,22.6,74.25,22.6Z"/><path class="cls-1" d="M76.84,23.46c0,.46-.21.69-.48.69s-.48-.23-.48-.69.22-.7.48-.7a.85.85,0,0,1,.48.15Zm0-.71a.88.88,0,0,0-.53-.15.86.86,0,0,0,0,1.71.57.57,0,0,0,.53-.31h0v.28a.49.49,0,0,1-.53.48.76.76,0,0,1-.5-.2h0v.19a1.26,1.26,0,0,0,.6.13.73.73,0,0,0,.81-.65V22.64H76.9Z"/><path class="cls-1" d="M79,23.46c0,.46-.22.69-.48.69s-.48-.23-.48-.7.21-.69.48-.69a.85.85,0,0,1,.48.15Zm0-.69a.93.93,0,0,0-.58-.17.86.86,0,0,0,0,1.71A.58.58,0,0,0,79,24l.1.28h.23V22.63h-.23Z"/><path class="cls-1" d="M80.82,22.6a.94.94,0,0,0-.57.17l-.06-.14H80v1.65h.33V22.91a.85.85,0,0,1,.48-.15c.21,0,.48,0,.48.49v1h.33v-1C81.58,22.78,81.25,22.6,80.82,22.6Z"/><path class="cls-1" d="M84.13,22.6a1,1,0,0,0-.57.17l-.06-.14h-.23v1.65h.33V22.91a.85.85,0,0,1,.48-.15c.21,0,.48,0,.48.49v1h.33v-1C84.89,22.78,84.57,22.6,84.13,22.6Z"/><path class="cls-1" d="M86.24,24.31a1,1,0,0,0,.57-.17l.06.14h.23V22.63h-.33V24a.85.85,0,0,1-.48.15c-.21,0-.48,0-.48-.49v-1h-.33v1C85.48,24.13,85.8,24.31,86.24,24.31Z"/><path class="cls-1" d="M89,24a.85.85,0,0,1-.48.15c-.26,0-.48-.23-.48-.69s.22-.7.48-.7.48.23.48.69Zm0-1.09a.57.57,0,0,0-.53-.31.86.86,0,0,0,0,1.71.88.88,0,0,0,.53-.15v.7h.33V22.64H89Z"/><path class="cls-1" d="M90.66,24.19c-.2,0-.28-.17-.28-.48v-.93h.53v-.15h-.53v-.37h-.22l-.11.37h-.24v.15h.24v.93a.55.55,0,0,0,.56.6.56.56,0,0,0,.4-.13V24H91A.38.38,0,0,1,90.66,24.19Z"/><path class="cls-1" d="M92.68,23.46c0,.46-.21.69-.48.69s-.48-.23-.48-.7.22-.69.48-.69a.85.85,0,0,1,.48.15Zm0-.69a.93.93,0,0,0-.58-.17.86.86,0,0,0,0,1.71.57.57,0,0,0,.53-.31l.1.28H93V22.63h-.23Z"/></g></g></svg>