<?xml version="1.0" encoding="utf-8"?>
<!-- Generator: Adobe Illustrator 26.0.2, SVG Export Plug-In . SVG Version: 6.00 Build 0)  -->
<svg version="1.1" id="Layer_1" xmlns="http://www.w3.org/2000/svg" xmlns:xlink="http://www.w3.org/1999/xlink" x="0px" y="0px"
	 viewBox="0 0 70 50" style="enable-background:new 0 0 70 50;" xml:space="preserve">
<style type="text/css">
	.st0{display:none;}
	.st1{display:inline;}
	.st2{fill:#020000;}
	.st3{fill:#090000;}
	.st4{fill:#0A0000;}
</style>
<g class="st0">
	<path class="st1" d="M69.4,39.2c-0.3,0.6-0.8,0.8-1.5,0.8c-1,0-2,0-3.1,0c-0.1,2.2-0.9,4.1-2.7,5.4c-1.3,1-2.8,1.5-4.4,1.4
		c-2.8-0.1-6.3-2.2-6.6-6.8c-8.1,0-16.1,0-24.2,0c-0.1,2.3-1,4.2-2.8,5.5c-1.3,1-2.8,1.4-4.4,1.3c-2.7-0.1-6.1-2.1-6.5-6.9
		c-0.2,0-0.5,0-0.7,0c-1.6,0-3.2,0-4.8,0c-1.6,0-2.5-0.9-2.5-2.5c0-0.7,0-1.4,0-2.1c-1,0-1.9,0-2.9,0c-0.3,0-0.5,0-0.8,0
		c-0.5-0.1-0.8-0.4-0.9-0.9c0-0.6,0.2-0.9,0.8-1.1c0.2-0.1,0.4-0.1,0.7-0.1c3.2,0,6.4,0,9.6,0c0.2,0,0.3,0,0.5,0
		c0.6,0.1,1,0.6,1,1.1c0,0.6-0.4,1-1.1,1c-1.3,0-2.6,0-3.9,0c-0.2,0-0.5,0-0.8,0c0,0.8,0,1.6,0,2.4c0.2,0,0.3,0.1,0.5,0.1
		c1.7,0,3.5,0,5.2,0c0.4,0,0.5-0.1,0.7-0.5c1.2-2.6,3.3-4.1,6.2-4.1c2.9,0,5.1,1.5,6.3,4.1c0.2,0.3,0.3,0.5,0.7,0.5
		c7.1,0,14.2,0,21.3,0c0.2,0,0.3,0,0.5,0c0-0.3,0-0.5,0-0.7c0-2.3,0-4.5,0-6.8c0-0.2,0-0.4,0-0.5c0.1-0.6,0.5-1.1,1.1-1.1
		c0.6,0,1.1,0.5,1.1,1.1c0,2.4,0,4.8,0,7.2c0,0.2,0,0.3,0,0.5c0,0.1,0.1,0.3,0.2,0.3c0.1,0,0.3-0.1,0.4-0.2c0.1,0,0.1-0.2,0.1-0.2
		c1.2-2.6,3.3-4.1,6.2-4.1c2.9,0,5.1,1.5,6.3,4.1c0.2,0.3,0.3,0.5,0.7,0.5c0.7,0,1.5,0,2.3,0c0-1.6,0-3.1,0-4.7c-0.4,0-0.8,0-1.2,0
		c-2-0.1-3.3-1.4-3.4-3.4c0-0.7,0-1.4,0-2.1c0-0.8,0.4-1.2,1.2-1.2c1,0,2,0,3.1,0c-0.2-0.7-0.5-1.3-1.1-1.6c-0.6-0.4-1.3-0.8-2-0.8
		c-4.2-0.1-8.4,0-12.6,0c-0.1,0-0.2,0-0.3,0.1c0,0.4,0,0.8,0,1.1c0,0.6-0.5,1.1-1,1.1c-0.6,0-1-0.4-1.1-1c0-0.2,0-0.4,0-0.6
		c0-6,0-12.1,0-18.1c0-0.3,0-0.5,0-0.8c-13.8,0-27.6,0-41.5,0c0,0.3,0,0.5,0,0.8c0,6.1,0,12.1,0,18.2c0,0.2,0,0.4,0,0.7
		c-0.1,0.6-0.4,0.9-1,1c-0.6,0-0.9-0.3-1.1-0.8c-0.1-0.2-0.1-0.5-0.1-0.7c0-6.2,0-12.4,0-18.6c0-1.7,0.9-2.6,2.6-2.6
		c13.6,0,27.1,0,40.7,0c1.7,0,2.6,0.8,2.6,2.5c0,0.6,0,1.3,0,2c0.3,0,0.5,0,0.8,0c2.3,0,4.6,0,6.9,0c2.9-0.1,5.4,1.9,4.9,5.8
		c0,0.4-0.4,0.7-0.7,1.1c0.5,2,1.1,4.3,1.6,6.5c0,0.2,0.2,0.4,0.4,0.4c2.4,0.6,3.9,2.1,4.4,4.5c0,0.1,0.1,0.1,0.1,0.2
		C69.4,30.8,69.4,35,69.4,39.2z M62.3,21.7c0-0.2-0.1-0.4-0.1-0.6c-0.5-1.9-1-3.8-1.4-5.8c-0.1-0.5-0.3-0.7-0.8-0.7
		c-2.7,0-5.5,0-8.2,0c-0.2,0-0.4,0-0.7,0c0,2.4,0,4.7,0,7C54.8,21.7,58.6,21.7,62.3,21.7z M58,44.7c2.5,0,4.7-2.1,4.7-4.7
		c0-2.5-2.1-4.6-4.7-4.6c-2.6,0-4.7,2.1-4.7,4.7C53.3,42.6,55.5,44.7,58,44.7z M20,44.7c2.6,0,4.7-2.1,4.7-4.6
		c0-2.5-2.1-4.6-4.6-4.7c-2.6,0-4.7,2.1-4.7,4.7C15.4,42.6,17.5,44.7,20,44.7z M51.1,10.1c0,0.9,0,1.6,0,2.4c3.5,0,6.9,0,10.4,0
		c0-1.4-1-2.4-2.4-2.4c-1.6,0-3.2,0-4.8,0C53.2,10.1,52.1,10.1,51.1,10.1z M67.2,28.5c-0.8,0-1.6,0-2.3,0c-0.3,2.1,0.3,2.6,2.3,2.3
		C67.2,30.1,67.2,29.3,67.2,28.5z"/>
	<path class="st1" d="M32.7,23.6c2.7-2.7,5.3-5.3,8-8c0.5-0.5,1-1,1.5-1.5c0.5-0.5,1.1-0.5,1.6-0.1c0.5,0.4,0.5,1.1,0,1.6
		c-3.4,3.4-6.8,6.8-10.2,10.2c-0.5,0.5-1.1,0.5-1.7,0c-1.9-1.8-3.7-3.7-5.6-5.5c-0.5-0.5-0.6-1.1-0.1-1.6c0.5-0.5,1.1-0.4,1.7,0.1
		c1.4,1.4,2.9,2.9,4.3,4.3C32.3,23.2,32.5,23.4,32.7,23.6z"/>
	<path class="st1" d="M35,35.3c-2.5,0-5,0-7.5,0c-0.2,0-0.4,0-0.7,0c-0.6-0.1-0.9-0.5-0.9-1c0-0.5,0.2-0.9,0.8-1
		c0.2-0.1,0.5-0.1,0.7-0.1c5.1,0,10.2,0,15.3,0c0.2,0,0.3,0,0.5,0c0.6,0.1,1,0.6,1,1.1c0,0.6-0.5,1-1.1,1c-0.8,0-1.6,0-2.4,0
		C38.7,35.3,36.9,35.3,35,35.3z"/>
	<path class="st1" d="M35,30.8c-2.2,0-4.4,0-6.7,0c-0.8,0-1.3-0.4-1.3-1.1c0-0.7,0.5-1.1,1.4-1.1c4.4,0,8.9,0,13.3,0
		c0.5,0,1,0.1,1.2,0.6c0.1,0.3,0.1,0.8-0.1,1c-0.2,0.3-0.7,0.5-1.1,0.5C39.5,30.8,37.3,30.8,35,30.8z"/>
	<path class="st1" d="M35,37.8c1.2,0,2.2,0.9,2.2,2.2c0,1.2-1,2.2-2.2,2.2c-1.2,0-2.2-1-2.3-2.2C32.8,38.8,33.8,37.8,35,37.8z"/>
</g>
<g>
	<path d="M10.9,3.5c-1.4,0-2.8,0-4.2,0c0,0.1,0,0.2,0,0.3c0,7.1,0,14.2,0,21.3c0,0.4,0,0.9,0,1.3c0,0.4-0.3,0.6-0.7,0.6
		c-0.4,0-0.7-0.2-0.7-0.6c0-0.1,0-0.2,0-0.3c0-7.4,0-14.9,0-22.3c0-0.1,0-0.3,0-0.4c-0.3,0-0.5,0-0.8,0c-0.4,0-0.8,0-1.3,0
		c-0.5,0-0.9-0.3-0.9-0.7c0-0.4,0.3-0.7,0.9-0.7c3.9,0,7.7,0,11.6,0c7.2,0,14.4,0,21.6,0c0.5,0,0.8,0.2,0.8,0.6
		c0.1,0.4-0.2,0.8-0.6,0.8c-0.1,0-0.2,0-0.3,0c-3.9,0-7.8,0-11.7,0c-0.4,0-0.3,0-0.3,0.3c0,3.1-0.3,6.1-0.9,9.1
		c-0.6,2.8-1.5,5.6-3,8c-1.6,2.7-3.8,4.7-6.5,6.3c-0.9,0.5-1.8,1-2.7,1.5c-0.2,0.1-0.4,0.3-0.6,0.4c-0.1,0.1-0.2,0.3-0.3,0.5
		c-0.1,0.3-0.3,0.5-0.6,0.5c-0.1,0-0.2,0-0.3,0c-1.7,0-3.5,0-5.2,0c-0.1,0-0.2,0-0.3,0c-0.4-0.1-0.6-0.4-0.6-0.7
		c0-0.4,0.3-0.7,0.7-0.7c0.7,0,1.5,0,2.2,0c0.9,0,1.8,0,2.7,0c0.1,0,0.2,0,0.2-0.1c0.4-0.6,1.1-1,1.7-1.3c1-0.6,2.1-1.1,3.1-1.7
		c2.8-1.7,4.8-4.1,6.2-7.1c1-2.2,1.7-4.6,2.1-7c0.4-2.5,0.6-5.1,0.7-7.7c0-0.2-0.1-0.3-0.3-0.3c-1.5,0-3,0-4.4,0c-0.1,0-0.2,0-0.3,0
		c0,0.7,0,1.3,0,1.9c-0.1,3-0.5,6-1.2,8.9c-1.3,4.8-3.7,9-7.4,12.3c-0.1,0.1-0.3,0.3-0.4,0.4c-0.3,0.2-0.6,0.2-0.9,0
		c-0.2-0.2-0.3-0.6-0.2-0.9c0.9-1.6,1.4-3.3,1.8-5c0.5-2,0.8-4,1.1-6C10.9,12,11,8.9,11,5.8C10.9,5.1,10.9,4.3,10.9,3.5z M10.5,23.2
		c0,0,0.1-0.1,0.1-0.1c0.6-0.8,1.2-1.6,1.8-2.4c2-3.1,3.1-6.6,3.6-10.3c0.3-1.6,0.4-3.3,0.5-4.9c0-0.7,0-1.3,0-2c-1.4,0-2.7,0-4.1,0
		C12.6,10.2,12.3,16.8,10.5,23.2z"/>
	<path d="M7.7,32.8c1.6,2,2.4,4.2,2.9,6.5c0.4,1.4,0.6,2.9,0.9,4.3c0.1,0.4-0.2,0.8-0.5,0.8c-0.4,0.1-0.8-0.2-0.9-0.6
		c-0.2-1-0.3-2-0.6-2.9c-0.4-1.9-1-3.7-1.8-5.5C7.5,35,7.3,34.6,7,34.2c0-0.1-0.1-0.1-0.2-0.2c0,0.1,0,0.2,0,0.2c0,4.2,0,8.5,0,12.7
		c0,0.1,0,0.2,0,0.4c-0.1,0.4-0.4,0.6-0.7,0.6c-0.4,0-0.6-0.3-0.7-0.7c0-0.2,0-0.4,0-0.6c0-4.5,0-9,0-13.5c0-0.1,0-0.2,0-0.3
		c-0.4,0-0.9,0-1.3,0c-0.3,0-0.5-0.1-0.7-0.3c-0.3-0.5,0-1.1,0.6-1.1c0.3,0,0.7,0,1,0c1.3,0,2.6,0,3.9,0c0.6,0,1.1,0.2,1.6,0.5
		c1.1,0.7,2,1.7,2.8,2.7c1.5,2.1,2.4,4.4,3,6.9c0.4,1.9,0.6,3.7,0.6,5.6c0,0.4-0.2,0.7-0.6,0.7c-0.3,0.1-0.7-0.1-0.8-0.4
		c0-0.1-0.1-0.2-0.1-0.4c-0.1-1.1-0.1-2.2-0.2-3.2c-0.4-3.2-1.4-6.2-3.4-8.7c-0.5-0.7-1.2-1.3-1.9-1.9C9.5,33,9,32.8,8.5,32.8
		C8.2,32.8,8,32.8,7.7,32.8z"/>
</g>
<g class="st0">
	<g transform="translate(0.000000,512.000000) scale(0.100000,-0.100000)" class="st1">
		<g>
			<path d="M363,5002.5c-9.3-3.4-15.6-12.9-15.6-23.1c0-7.5,3.6-18.2,8-24.1c1.9-2.7,18.5-21,36.7-40.8l33.2-35.9l15.4,15.4
				c9.3,9.3,15.1,15.8,14.6,16.6c-0.4,0.8-13.2,19.1-28.6,40.8c-28.5,40.5-32.3,44.9-42.1,49.2
				C378.5,5003.3,367.7,5004.3,363,5002.5z M384.6,4994.5c2.4-0.9,6.2-3.4,8.5-5.8l4.2-4.3l-3.7-3.2c-3.9-3.2-5.4-3.9-5.4-2.3
				c0,1.6-9.6,11.7-13.5,14.1c-2,1.3-3.8,2.8-3.8,3.3C371.1,4997.6,378.8,4996.5,384.6,4994.5z"/>
			<path d="M554.2,4989.5c-3.9-0.9-6.6-2.9-15.4-11.4l-10.7-10.3l22.9-22.9l22.9-22.9l8.9,8.9c10.9,10.9,13.6,15.8,12.9,24l-0.5,5.9
				l-13.9,14c-7.9,8-15.1,14.2-16.6,14.5c-1.5,0.3-3.4,0.8-4.3,1C559.7,4990.4,556.8,4990.1,554.2,4989.5z"/>
			<path d="M442.1,4881.5l-78.1-78.1l22.9-22.8l22.8-22.9l78.3,78.4l78.4,78.3l-16.5,16.4l-16.4,16.5l-74.3-74.3l-74.2-74.2
				l-3.3,3.1l-3.3,3.1l74.4,74.4l74.4,74.4l-3.1,2.9c-1.6,1.6-3.2,2.9-3.6,2.9C520.4,4959.6,485.1,4924.5,442.1,4881.5z"/>
			<path d="M356.6,4794.7c-0.3-0.8-3.6-13.6-7.1-28.4c-3.6-14.8-6.8-27.7-7.1-28.6c-0.4-1.5,5-0.4,29.4,5.7
				c16.5,4.1,30,7.5,30.1,7.7c0.1,0.1-9.9,10.3-22.3,22.7C364.5,4789,357,4795.8,356.6,4794.7z"/>
			<path d="M542.6,4781.8c-6.6-2.5-16.5-11.1-19.1-16.5c-2.3-4.7-2.2-10.8,0-14.6c4-6.6,18.1-12.5,37.9-15.7
				c16.3-2.7,59.1-0.8,55.9,2.5c-0.3,0.3-5.5,1-11.4,1.4c-16.7,1.3-21.2,5.1-27.7,23.3c-4.4,12.3-7.4,16.8-13.4,19.8
				C559.4,4784.7,550,4784.7,542.6,4781.8z"/>
			<path d="M493.8,4827.7l-11.2-11.2l2.2-2.5c1.1-1.3,7.1-8.1,13.4-15c6.2-6.9,13.2-14.9,15.7-17.6c2.4-2.7,4.7-5,5.4-5
				c2.2,0,18.7,14.2,18.7,16.2c0,1.1-2.6,5.3-5.7,9.3c-3.2,4.1-10.2,13.9-15.7,21.6c-5.5,7.9-10.3,14.5-10.8,14.8
				C505.3,4838.7,499.9,4833.8,493.8,4827.7z"/>
		</g>
	</g>
</g>
<g>
	<path d="M41.4,15.1c-0.3-0.5-0.4-1.1-0.2-1.7c0.2-0.6,0.7-0.9,1.3-1.1c0,0-0.1-0.1-0.1-0.1c-0.4-0.4-0.5-0.9-0.4-1.5
		c0.2-0.6,0.6-0.9,1.2-1c0.1,0,0.1,0,0.2-0.2c0.2-1,0.3-2,0.5-3c0-0.2,0.2-0.3,0.4-0.3c0.1,0,0.3,0,0.4,0c0-0.2-0.1-0.4-0.1-0.7
		c0-0.2,0-0.3,0.2-0.4c0.2-0.1,0.3,0,0.4,0.1c0.1,0.1,0.1,0.2,0.1,0.3c0.1,0.6,0.2,1.1,0.3,1.7c0,0.2-0.1,0.4-0.3,0.5
		C45.2,7.7,45,7.6,45,7.4c0-0.1-0.1-0.2-0.1-0.4c0-0.1,0-0.1-0.1-0.1c0,0-0.1,0-0.1,0c-0.1,0-0.1,0-0.1,0.1
		c-0.1,0.5-0.2,0.9-0.2,1.4c-0.1,0.4-0.1,0.8-0.2,1.2c0,0.1,0,0.2,0.1,0.2c0.5,0.3,0.8,0.8,0.7,1.4c0,0.6-0.3,1-0.8,1.3
		c0,0-0.1,0-0.1,0.1c0.5,0.4,0.8,0.9,0.8,1.5c0,0.6-0.2,1.1-0.7,1.5c0,0,0,0,0,0c0.3,0.2,0.3,0.4,0.4,0.7c0.1,0.5,0.1,1,0.2,1.5
		c0.1,0.5,0.1,1,0.2,1.5c0.1,0.5,0.1,1,0.2,1.5c0.1,0.6,0.1,1.2,0.2,1.7c0,0.3,0.1,0.5,0.1,0.8c0,0.3,0,0.4-0.3,0.5
		c-0.3,0.1-0.6,0.2-0.9,0.2c-0.5,0.1-1,0.1-1.5,0c-0.6-0.1-1.1-0.1-1.6-0.2c-0.8-0.1-1.5-0.3-2.2-0.6c-0.4-0.2-0.8-0.4-1.2-0.7
		c-0.3-0.3-0.4-0.4-0.2-0.8c1.1-2.1,2.2-4.2,3.3-6.3C41,15.3,41.1,15.2,41.4,15.1C41.4,15.1,41.4,15.1,41.4,15.1z M38.2,22.2
		c0.4,0.3,0.9,0.5,1.4,0.7c0-0.1,0-0.1,0.1-0.1c0.4-1.4,0.8-2.7,1.2-4.1c0.2-0.6,0.4-1.2,0.6-1.8c0.1-0.2,0.3-0.3,0.5-0.2
		c0.2,0.1,0.3,0.3,0.2,0.5c-0.6,1.9-1.2,3.9-1.7,5.8c0,0.1,0,0.1,0,0.2c0.7,0.2,1.3,0.3,1.9,0.4c0.1,0,0.2,0,0.2,0c0,0,0-0.2,0-0.2
		c0-0.7,0.1-1.5,0.1-2.2c0-0.5,0-0.9,0.1-1.4c0-0.8,0.1-1.6,0.1-2.3c0-0.1,0-0.2,0.1-0.3c0.1-0.1,0.3-0.2,0.4-0.1
		c0.1,0.1,0.2,0.2,0.2,0.4c0,0.2,0,0.5,0,0.7c0,0.4,0,0.9-0.1,1.3c0,0.6-0.1,1.3-0.1,1.9c0,0.3,0,0.7-0.1,1c0,0.4,0,0.8-0.1,1.2
		c0,0.1,0,0.1,0.1,0.1c0.4,0,0.9,0,1.3-0.1c0.1,0,0.1-0.1,0.1-0.1c0-0.2-0.1-0.5-0.1-0.7c-0.1-0.6-0.2-1.3-0.2-1.9
		c-0.1-0.6-0.2-1.3-0.2-1.9c-0.1-0.7-0.2-1.4-0.3-2.1c-0.1-0.5-0.1-0.5-0.5-0.6c-0.3-0.1-0.6-0.1-0.9-0.2c-0.2,0-0.5-0.1-0.7-0.1
		c-0.1,0-0.2,0-0.2,0.1c-1.1,2.1-2.1,4.1-3.2,6.2C38.2,22.1,38.2,22.2,38.2,22.2z M41.9,14.1c0,0.5,0.4,1.1,1.1,1.1
		c0.6,0,1.1-0.5,1.1-1.1c0-0.6-0.5-1.1-1.1-1.1C42.4,13,41.9,13.5,41.9,14.1z M44.3,11.2c0-0.4-0.3-0.8-0.8-0.8
		c-0.4,0-0.8,0.3-0.8,0.8c0,0.4,0.4,0.8,0.8,0.7C43.9,11.9,44.3,11.6,44.3,11.2z"/>
	<path d="M47.9,7.5c-0.1,0.1-0.2,0.2-0.3,0.2c-0.2,0-0.3-0.1-0.3-0.3c-0.1-0.6-0.3-1.2-0.4-1.8c0-0.2,0.1-0.4,0.3-0.4
		c0.2,0,0.4,0.1,0.4,0.3c0,0.2,0.1,0.4,0.1,0.7c0,0.1,0.1,0.2,0.2,0.1c0.1,0,0.2,0,0.2,0c0.2,0,0.4,0.1,0.4,0.3
		c0.1,0.5,0.2,0.9,0.2,1.4C48.8,8.5,48.9,9,49,9.6c0,0.1,0.1,0.1,0.2,0.1c0.3,0,0.6,0.2,0.8,0.4c0.6,0.6,0.6,1.5,0,2.1
		c0,0,0,0-0.1,0.1c0.6,0.2,1.1,0.5,1.3,1.1c0.2,0.6,0.2,1.1-0.1,1.7c0,0,0,0,0,0c0.3,0.1,0.4,0.3,0.6,0.5c1.1,2.1,2.2,4.3,3.3,6.4
		c0.1,0.2,0.1,0.4-0.1,0.6c-0.3,0.3-0.8,0.5-1.2,0.7c-0.8,0.3-1.6,0.5-2.4,0.7c-0.8,0.1-1.6,0.2-2.4,0.2c-0.5,0-1-0.1-1.5-0.2
		c-0.1,0-0.1,0-0.2-0.1c-0.2-0.1-0.3-0.3-0.3-0.5c0.1-0.5,0.1-1,0.2-1.5c0.1-0.6,0.2-1.1,0.2-1.7c0.1-0.5,0.1-1,0.2-1.5
		c0.1-0.6,0.1-1.1,0.2-1.7c0-0.2,0.1-0.5,0.1-0.7c0-0.2,0.1-0.4,0.3-0.6c0,0,0,0,0.1-0.1c-0.5-0.4-0.7-0.9-0.7-1.5
		c0-0.6,0.3-1.1,0.8-1.5c0,0-0.1,0-0.1-0.1c-0.5-0.3-0.8-0.7-0.9-1.3c0-0.6,0.2-1,0.8-1.3c0.1-0.1,0.1-0.1,0.1-0.2
		c-0.1-0.7-0.2-1.4-0.4-2.1C47.9,7.5,47.9,7.5,47.9,7.5z M52.2,23.1c0-0.1,0-0.1,0-0.1c-0.3-1-0.6-2-0.9-2.9c-0.3-1-0.6-2-0.9-3
		c-0.1-0.2,0-0.4,0.3-0.5c0.2-0.1,0.4,0.1,0.4,0.3c0.3,1,0.6,2.1,0.9,3.1c0.3,0.9,0.6,1.8,0.8,2.8c0,0.1,0.1,0.1,0.1,0.1
		c0.2-0.1,0.5-0.2,0.7-0.3c0.2-0.1,0.4-0.2,0.6-0.3c0-0.1,0-0.1-0.1-0.1c-0.4-0.9-0.9-1.7-1.3-2.6c-0.6-1.2-1.2-2.4-1.9-3.6
		c0-0.1-0.1-0.1-0.2-0.1c-0.2,0-0.4,0-0.5,0c-0.2,0-0.5,0.1-0.7,0.1c-0.2,0-0.4,0.1-0.7,0.2c-0.1,0-0.2,0.1-0.2,0.3
		c0,0.4-0.1,0.7-0.1,1.1c-0.1,0.9-0.2,1.9-0.4,2.8c-0.1,1-0.3,2-0.4,3c0,0.1,0,0.1,0.1,0.2c0.4,0.1,0.9,0.1,1.3,0.1
		c0.1,0,0.1,0,0.1-0.1c0-0.5-0.1-1.1-0.1-1.6c-0.1-0.9-0.1-1.7-0.2-2.6c0-0.7-0.1-1.3-0.1-2c0-0.2,0.1-0.4,0.3-0.4
		c0.2,0,0.4,0.1,0.4,0.4c0,0.7,0.1,1.4,0.1,2c0,0.6,0.1,1.2,0.1,1.8c0,0.8,0.1,1.5,0.1,2.3c0,0.1,0,0.1,0.1,0.1c0.2,0,0.4,0,0.6-0.1
		C51.2,23.3,51.7,23.2,52.2,23.1z M50.6,14.1c0-0.6-0.5-1.1-1.1-1.1c-0.6,0-1.1,0.5-1.1,1.1c0,0.6,0.5,1.1,1.1,1.1
		C50.2,15.2,50.6,14.6,50.6,14.1z M49.7,11.2c0-0.4-0.3-0.8-0.8-0.8c-0.4,0-0.7,0.3-0.7,0.8c0,0.4,0.3,0.8,0.8,0.8
		C49.3,11.9,49.7,11.6,49.7,11.2z"/>
	<path d="M46.8,7.3c0,0.2-0.1,0.4-0.3,0.4c-0.2,0-0.3-0.1-0.4-0.3C46.1,7.1,46,6.9,46,6.7c-0.1-0.4-0.1-0.7-0.2-1.1
		c0-0.2,0.1-0.4,0.3-0.5c0.2,0,0.4,0.1,0.4,0.3C46.6,6,46.7,6.6,46.8,7.3C46.8,7.2,46.8,7.3,46.8,7.3z"/>
</g>
<g>
	<path class="st2" d="M48.4,32.3c-0.1,0.2-0.2,0.3-0.4,0.4c-0.2,0.2-0.5,0.4-0.8,0.4c-0.3,0.1-0.7,0.2-1.1,0.1
		c-0.3,0-0.6-0.1-0.9-0.2c-0.4-0.1-0.7-0.3-1-0.6c-0.1-0.1-0.1-0.2-0.2-0.2c0,0.2,0.1,0.3,0.1,0.4c0,0.3,0.1,0.7,0,1
		c0,0,0,0.1,0,0.1c0.3,0.1,0.5,0.3,0.6,0.6c0.1,0.3,0,0.7-0.3,0.9c-0.1,0.1-0.1,0.1,0,0.2c0.2,0.2,0.2,0.5,0.1,0.7
		c0,0.1,0,0.1,0,0.2c0.1,0.1,0.1,0.2,0,0.3c0,0.2,0,0.3,0.1,0.5c0.2,0.3,0.3,0.6,0.4,0.9c0.1,0.3,0.1,0.5,0.2,0.8
		c0,0.2,0.1,0.3,0.1,0.5c0,0.1,0.1,0.3,0.1,0.4c0,0.1,0,0.3,0.1,0.4c0,0.3,0.1,0.6,0.1,0.9c0.1,0.4,0.2,0.8,0.4,1.2
		c0,0.1,0,0.1,0,0.1c-0.2,0.1-0.3,0.1-0.5,0.2c-0.4,0.1-0.7,0.1-1.1,0.1c-0.4,0-0.8,0-1.1,0c-0.4,0-0.9-0.1-1.3-0.3
		c-0.1,0-0.1-0.1-0.1-0.2c0.2-0.4,0.3-0.7,0.4-1.1c0.1-0.4,0.1-0.8,0.2-1.1c0.1-0.4,0.1-0.8,0.2-1.2c0.1-0.4,0.2-0.8,0.4-1.2
		c0.1-0.1,0.1-0.3,0.2-0.4c0.1-0.1,0.1-0.2,0-0.3c0-0.2-0.1-0.3,0-0.5c0-0.1,0-0.1,0-0.2c-0.1-0.3,0-0.5,0.1-0.7c0-0.1,0-0.1,0-0.1
		C43.1,35.2,43,35,43,34.7c0-0.4,0.2-0.7,0.6-0.8c0.1,0,0.1-0.1,0-0.1c-0.1-0.2-0.1-0.4-0.1-0.7c0-0.2,0-0.4,0-0.5
		c0-0.1,0.1-0.1,0-0.2c-0.1,0.2-0.3,0.4-0.5,0.5c-0.3,0.2-0.5,0.3-0.8,0.4c-0.4,0.1-0.9,0.1-1.3,0.1c-0.5-0.1-1-0.3-1.3-0.6
		c-0.1-0.1-0.2-0.2-0.3-0.3c0,0.1,0,0.2,0,0.2c0,0.3,0.1,0.6,0.1,0.9c0,0.1,0,0.2-0.1,0.3c0,0.1,0,0.1,0.1,0.1
		c0.4,0.2,0.6,0.5,0.6,0.9c0,0.3-0.1,0.5-0.4,0.7c0,0-0.1,0,0,0.1c0.2,0.2,0.2,0.5,0.1,0.8c0,0.1,0,0.1,0,0.2c0.1,0.1,0.1,0.1,0,0.2
		c0,0.1,0,0.2,0,0.3c0,0,0,0.1,0,0.1c0.2,0.3,0.3,0.6,0.4,0.9c0.1,0.3,0.2,0.5,0.2,0.8c0,0.2,0.1,0.4,0.1,0.5c0,0.3,0.1,0.5,0.1,0.8
		c0,0.2,0,0.4,0.1,0.6c0,0.3,0.1,0.5,0.2,0.8c0.1,0.3,0.2,0.6,0.3,0.8c0,0.1,0,0.1,0,0.1c-0.2,0.1-0.3,0.1-0.5,0.2
		c-0.5,0.1-1,0.1-1.5,0.1c-0.3,0-0.7,0-1,0c-0.3,0-0.6-0.1-0.8-0.2c0,0,0,0,0,0c-0.3-0.1-0.3-0.1-0.2-0.4c0.1-0.3,0.2-0.7,0.3-1
		c0.1-0.3,0.1-0.6,0.1-1c0-0.3,0.1-0.6,0.1-0.9c0.1-0.5,0.2-1,0.4-1.5c0.1-0.2,0.2-0.5,0.3-0.7c0,0,0.1-0.1,0-0.1c0-0.1,0-0.2,0-0.3
		c0-0.1,0-0.1,0-0.1c0.1-0.1,0-0.2,0-0.3c-0.1-0.3,0-0.5,0.1-0.7c0.1-0.1,0-0.1,0-0.1c-0.3-0.2-0.5-0.7-0.3-1.1
		c0.1-0.2,0.3-0.4,0.5-0.5c0,0,0.1,0,0-0.1c-0.1-0.3-0.1-0.5-0.1-0.8c0-0.2,0.1-0.4,0-0.6c-0.1,0.1-0.2,0.3-0.4,0.4
		c-0.2,0.2-0.5,0.3-0.8,0.4c-0.3,0.1-0.5,0.1-0.8,0.1c-0.1,0-0.1,0-0.1-0.1c0-0.1,0-0.2,0.1-0.2c0.4,0,0.7-0.1,1-0.2
		c0.4-0.2,0.7-0.5,1-0.9c0.1-0.2,0.1-0.3,0-0.5c0-0.1-0.1-0.3,0-0.4c0-0.2,0.2-0.3,0.4-0.2c0.2,0,0.3,0.2,0.3,0.3
		c0,0.1,0,0.3-0.1,0.4c-0.1,0.2,0,0.3,0.1,0.5c0.2,0.4,0.5,0.7,0.9,0.8c0.3,0.1,0.5,0.2,0.8,0.2c0.2,0,0.4,0,0.6,0
		c0.8-0.1,1.5-0.4,1.8-1.2c0.1-0.1,0-0.2,0-0.4c-0.1-0.1-0.1-0.3,0-0.5c0.1-0.1,0.2-0.2,0.4-0.2c0.1,0,0.2,0.1,0.3,0.3
		c0,0.2,0,0.4-0.1,0.5c0,0.1,0,0.2,0,0.2c0.2,0.5,0.6,0.9,1.1,1.1c0.5,0.2,0.9,0.2,1.4,0.1c0.4,0,0.7-0.1,1-0.3
		c0.3-0.2,0.6-0.5,0.8-0.9c0-0.1,0-0.1,0-0.2c-0.1-0.1-0.1-0.3-0.1-0.5c0-0.2,0.1-0.3,0.3-0.4c0.2,0,0.3,0.2,0.3,0.3
		c0,0.1,0,0.3-0.1,0.4c-0.1,0.2,0,0.3,0,0.4c0.2,0.4,0.5,0.7,1,0.9c0.2,0.1,0.4,0.1,0.6,0.2c0.3,0.1,0.5,0,0.8,0
		c0.5,0,0.9-0.2,1.3-0.5c0.2-0.2,0.4-0.4,0.5-0.7c0.1-0.1,0.1-0.3,0-0.4c-0.1-0.2-0.1-0.3,0-0.5c0.1-0.1,0.2-0.3,0.4-0.2
		c0.1,0,0.3,0.2,0.3,0.3c0,0.2,0,0.3-0.1,0.5c0,0.1,0,0.2,0,0.3c0.3,0.5,0.7,0.9,1.3,1.1c0.3,0.1,0.5,0.1,0.8,0.1
		c0.1,0,0.1,0.1,0.1,0.1c0,0.1,0,0.1-0.1,0.1c-0.5,0-0.9-0.1-1.4-0.3c-0.2-0.1-0.4-0.3-0.6-0.5c0,0,0,0,0,0c0,0,0,0-0.1,0
		c0,0.2,0,0.3,0.1,0.5c0,0.3,0.1,0.6,0,0.9c0,0,0,0.1,0.1,0.1c0.3,0.1,0.5,0.3,0.6,0.6c0.1,0.3,0,0.5-0.2,0.8
		c-0.1,0.1-0.1,0.1-0.2,0.2c-0.1,0,0,0.1,0,0.1c0.2,0.3,0.2,0.6,0.1,0.8c0,0,0,0.1,0,0.1c0.1,0.1,0.1,0.2,0,0.3
		c0,0.2-0.1,0.3,0.1,0.5c0.3,0.4,0.4,0.9,0.5,1.3c0.1,0.3,0.1,0.6,0.2,0.9c0.1,0.2,0.1,0.5,0.1,0.8c0,0.2,0.1,0.4,0.1,0.6
		c0,0.2,0,0.3,0.1,0.5c0.1,0.3,0.2,0.7,0.3,1c0.1,0.2,0.1,0.2-0.1,0.2c-0.1,0.1-0.3,0.1-0.5,0.1c-0.6,0.1-1.1,0.1-1.7,0.1
		c-0.2,0-0.4,0-0.6,0c-0.4,0-0.9-0.1-1.2-0.3c-0.1,0-0.1-0.1-0.1-0.2c0.2-0.4,0.3-0.8,0.4-1.2c0.1-0.4,0.1-0.8,0.2-1.1
		c0.1-0.4,0.1-0.8,0.2-1.2c0.1-0.5,0.3-1,0.5-1.4c0-0.1,0.1-0.2,0.1-0.2c0-0.1,0-0.1,0-0.2c0-0.1,0-0.2,0-0.3c0-0.1,0-0.1,0.1-0.2
		c0,0,0-0.1,0-0.1c-0.1-0.3-0.1-0.6,0.1-0.8c0.1-0.1,0-0.1,0-0.1c-0.2-0.1-0.3-0.3-0.3-0.4c-0.2-0.5,0.1-0.9,0.5-1.1
		c0.1,0,0.1-0.1,0.1-0.1c-0.1-0.2-0.1-0.5-0.1-0.7c0-0.1,0-0.3,0-0.4c0-0.1,0-0.2,0-0.3c-0.2,0.2-0.4,0.4-0.6,0.6
		c-0.2,0.2-0.5,0.3-0.7,0.3c-0.4,0.1-0.8,0.1-1.1,0.1c-0.4,0-0.7-0.1-1.1-0.3c-0.3-0.2-0.5-0.4-0.7-0.6c0,0.1,0,0.2,0,0.3
		c0,0.3,0.1,0.7,0,1c0,0.1,0,0.1,0.1,0.2c0.2,0.1,0.4,0.3,0.5,0.5c0.1,0.4,0,0.8-0.3,1c0,0-0.1,0,0,0.1c0.2,0.2,0.2,0.5,0.1,0.8
		c0,0.1,0,0.1,0,0.2c0,0,0.1,0.1,0,0.2c0,0.1,0,0.2,0,0.3c0,0,0,0.1,0,0.1c0.2,0.4,0.4,0.9,0.6,1.3c0.1,0.3,0.2,0.7,0.2,1
		c0,0.2,0.1,0.4,0.1,0.5c0,0.2,0.1,0.4,0.1,0.6c0,0.3,0.1,0.6,0.2,0.9c0.1,0.2,0.1,0.4,0.2,0.6c0,0.1,0.1,0.1,0.1,0.2
		c0.1,0.1,0,0.1-0.1,0.2c-0.2,0.1-0.4,0.2-0.6,0.2c-0.4,0.1-0.9,0.1-1.3,0.1c-0.3,0-0.7,0-1,0c-0.2,0-0.5,0-0.7-0.1
		c-0.1,0-0.3-0.1-0.4-0.2c-0.1,0-0.1-0.1,0-0.1c0.1-0.2,0.2-0.5,0.3-0.7c0.1-0.2,0.1-0.5,0.2-0.8c0-0.3,0.1-0.5,0.1-0.8
		c0-0.2,0-0.3,0.1-0.5c0.1-0.3,0.1-0.7,0.2-1c0.1-0.4,0.3-0.8,0.5-1.2c0,0,0,0,0,0c0.2-0.2,0.1-0.4,0.1-0.6c0-0.1,0-0.1,0-0.1
		c0.1-0.1,0.1-0.2,0-0.3c-0.1-0.2-0.1-0.4,0-0.6c0,0,0,0,0,0c0-0.1,0.1-0.1,0.1-0.2c0-0.1-0.1-0.1-0.2-0.1c-0.5-0.5-0.3-1.2,0.3-1.5
		c0,0,0.1,0,0.1-0.1c-0.1-0.4-0.1-0.9,0-1.3C48.4,32.4,48.4,32.4,48.4,32.3C48.4,32.4,48.4,32.4,48.4,32.3z M53,41.9
		c0-0.2,0.1-0.5,0-0.7c0-0.1,0-0.1,0-0.2c0-0.1,0-0.2,0-0.3c0,0.1,0,0.2,0,0.3c0,0,0,0.1,0,0.1C53.1,41.3,53,41.6,53,41.9
		C52.9,42,53,42,53,42.1C53,42,53,42,53,41.9z M47.9,40.4C47.9,40.4,47.9,40.5,47.9,40.4c-0.1,0.3-0.1,0.4-0.1,0.6
		c0,0.3-0.1,0.6-0.1,0.9c0,0,0,0.1,0,0.1C47.9,41.5,47.9,41,47.9,40.4c0.1,0,0.1-0.1,0-0.2C47.9,40.3,47.9,40.4,47.9,40.4z
		 M47.8,39.2c0.1-0.1,0-0.2,0.1-0.3C47.8,39,47.8,39.1,47.8,39.2C47.8,39.2,47.8,39.3,47.8,39.2c-0.1,0.3-0.2,0.6-0.2,0.9
		c0,0.2-0.1,0.3-0.1,0.5c0,0.2-0.1,0.4-0.1,0.6c0,0,0,0.1,0,0.1c0-0.2,0.1-0.4,0.1-0.7c0-0.3,0.1-0.6,0.2-0.9
		C47.8,39.5,47.8,39.3,47.8,39.2z M38.3,39.1c-0.2,0.8-0.4,1.6-0.4,2.5C38,40.7,38.2,39.9,38.3,39.1z M52.6,39.1
		c-0.1,0.2-0.5,2.1-0.4,2.3C52.3,40.6,52.5,39.8,52.6,39.1z M43,39c0,0.1-0.1,0.2-0.1,0.4c-0.1,0.3-0.1,0.6-0.2,0.9
		c-0.1,0.3-0.1,0.6-0.1,0.9c0,0,0,0.1,0,0.1c0,0,0,0,0-0.1c0-0.3,0.1-0.7,0.2-1c0-0.3,0.1-0.5,0.1-0.8C43.1,39.2,43.1,39.1,43,39z
		 M43.2,40.2c-0.1,0.6-0.2,1.2-0.3,1.8C43.1,41.4,43.2,40.8,43.2,40.2z M52.5,41.9c0.1-0.5,0.2-1.1,0.2-1.6
		C52.6,40.8,52.5,41.4,52.5,41.9z M38.4,40.3c-0.1,0.5-0.2,1.1-0.2,1.6C38.3,41.4,38.4,40.8,38.4,40.3z M43.5,40.7
		c0,0.4-0.1,0.8-0.1,1.2C43.5,41.5,43.6,41.1,43.5,40.7z M38.7,41.8c0-0.2,0.1-0.3,0.1-0.5c0-0.2,0-0.3,0-0.5
		C38.7,41.1,38.7,41.4,38.7,41.8z M48.3,40.7c0,0.3-0.1,0.7,0,1C48.3,41.4,48.3,41.1,48.3,40.7z M47.5,41.4c0,0,0-0.1,0-0.1
		C47.4,41.2,47.4,41.3,47.5,41.4c-0.1,0.1-0.1,0.2,0,0.2C47.5,41.5,47.5,41.4,47.5,41.4z M42.7,41.2c0,0.1,0,0.1,0,0.2
		C42.7,41.3,42.7,41.2,42.7,41.2z M38.7,41.8c0,0.1,0,0.2,0,0.2C38.7,42,38.7,41.9,38.7,41.8z"/>
	<path class="st3" d="M39.1,29.5c-0.6,0-1.2,0.2-1.6,0.7c-0.2,0.2-0.3,0.5-0.4,0.8c0,0.2-0.1,0.4-0.1,0.6c0,0.1-0.1,0.3-0.2,0.4
		c0,0-0.1,0.1-0.1,0c0-0.1,0-0.1,0-0.2c0.1-0.1,0.1-0.3,0.1-0.4c0-0.5,0.2-0.9,0.4-1.2c0.3-0.4,0.8-0.7,1.3-0.8c0.3-0.1,0.7-0.1,1,0
		c0.3,0,0.5,0.1,0.8,0.3c0.4,0.3,0.7,0.6,0.9,1.1c0.1,0.3,0.1,0.5,0.1,0.8c0,0.1,0,0.2,0,0.2c0,0.1,0,0.1,0.1,0.1c0,0,0.1,0,0.1-0.1
		c0-0.1,0-0.2,0-0.2c0-0.6,0.2-1.2,0.7-1.6c0.3-0.3,0.7-0.5,1.1-0.5c0.6-0.1,1.2,0,1.7,0.3c0.4,0.2,0.7,0.6,0.9,1
		c0.1,0.2,0.1,0.4,0.1,0.5c0,0.2,0,0.4,0.1,0.5c0,0.1,0,0.1,0.1,0.1c0.1,0,0.1-0.1,0.1-0.1c0-0.1,0-0.3,0-0.4c0-0.4,0.2-0.8,0.4-1.1
		c0.2-0.3,0.5-0.5,0.8-0.7c0.3-0.1,0.5-0.2,0.8-0.2c0.4,0,0.8,0,1.1,0.2c0.3,0.1,0.6,0.4,0.8,0.7c0.2,0.3,0.3,0.5,0.4,0.9
		c0,0.1,0.1,0.3,0.1,0.4c0,0.1,0,0.2,0,0.3c0,0.1,0.1,0.1,0.1,0.1c0.1,0,0.1-0.1,0.1-0.1c0-0.1,0-0.2,0-0.2c0-0.4,0.1-0.7,0.2-1
		c0.3-0.5,0.6-0.8,1.2-1c0.4-0.1,0.8-0.2,1.2-0.1c0.5,0,0.9,0.2,1.2,0.5c0.3,0.2,0.5,0.5,0.6,0.9c0.1,0.3,0.2,0.6,0.2,0.9
		c0,0.1,0,0.2,0.1,0.2c0.1,0,0,0.1,0,0.2c0,0.1,0,0-0.1,0c-0.1,0-0.3-0.1-0.3-0.3c0-0.2,0-0.4-0.1-0.6c-0.1-0.4-0.2-0.7-0.5-1
		c-0.3-0.3-0.6-0.5-1-0.6c-0.3-0.1-0.5-0.1-0.8,0c-0.3,0-0.6,0.2-0.8,0.3c-0.3,0.2-0.5,0.4-0.7,0.8c-0.2,0.3-0.2,0.7-0.2,1.1
		c0,0.2-0.1,0.4-0.4,0.4c-0.1,0-0.2-0.1-0.3-0.2c0-0.1-0.1-0.2-0.1-0.3c0-0.6-0.2-1.1-0.7-1.6c-0.2-0.2-0.5-0.4-0.8-0.4
		c-0.6-0.2-1.2-0.1-1.8,0.3c-0.3,0.2-0.6,0.6-0.7,1c-0.1,0.2-0.1,0.5-0.1,0.7c0,0.2,0,0.3-0.2,0.4c-0.2,0.1-0.5,0-0.5-0.3
		c0-0.3-0.1-0.6-0.2-0.9c-0.1-0.2-0.2-0.4-0.3-0.6c-0.3-0.4-0.7-0.6-1.1-0.7c-0.3-0.1-0.6-0.1-0.9,0c-0.3,0.1-0.6,0.2-0.8,0.4
		c-0.3,0.2-0.5,0.5-0.6,0.8c-0.1,0.2-0.1,0.4-0.1,0.5c0,0.2,0,0.3-0.1,0.5c-0.1,0.2-0.2,0.2-0.3,0.2c-0.1,0-0.2-0.1-0.3-0.3
		c0-0.1,0-0.2,0-0.2c0-0.8-0.4-1.4-1.1-1.8C39.8,29.5,39.4,29.5,39.1,29.5z"/>
	<path class="st4" d="M41.6,32.8c-0.5,0-0.9-0.1-1.2-0.3c-0.3-0.2-0.4-0.5-0.5-0.8c-0.1-0.3-0.1-0.5-0.1-0.8
		c-0.1-0.2-0.2-0.4-0.5-0.5c-0.1,0-0.3,0-0.4,0c-0.2,0.1-0.3,0.3-0.4,0.5c-0.1,0.2-0.1,0.4-0.1,0.6c-0.1,0.5-0.4,0.9-0.9,1.1
		c-0.2,0.1-0.4,0.1-0.7,0.1c-0.1,0-0.1,0-0.1-0.1c0-0.1,0-0.1,0.1-0.1c0.4,0,0.8-0.1,1-0.4c0.1-0.2,0.2-0.3,0.3-0.5
		c0.1-0.2,0.1-0.5,0.1-0.7c0.1-0.5,0.6-0.7,1.1-0.6c0.4,0.1,0.6,0.4,0.7,0.8c0,0.3,0.1,0.5,0.1,0.8c0.1,0.3,0.3,0.5,0.5,0.6
		c0.4,0.2,0.7,0.2,1.2,0.2c0.3,0,0.5-0.1,0.7-0.3c0.2-0.2,0.3-0.4,0.4-0.7c0-0.3,0-0.5,0.2-0.8c0.1-0.2,0.2-0.4,0.5-0.5
		c0.3-0.1,0.6-0.1,0.9,0.1c0.2,0.2,0.3,0.4,0.3,0.6c0.1,0.3,0,0.5,0.1,0.8c0.2,0.4,0.4,0.6,0.8,0.7c0.3,0.1,0.6,0.1,0.8,0
		c0.3-0.1,0.6-0.2,0.8-0.4c0.1-0.2,0.2-0.4,0.3-0.6c0.1-0.2,0-0.4,0.1-0.6c0.1-0.4,0.3-0.6,0.6-0.7c0.5-0.1,1,0.1,1.1,0.6
		c0.1,0.2,0.1,0.5,0.1,0.7c0.1,0.3,0.2,0.5,0.4,0.7c0.3,0.3,0.8,0.3,1.2,0.3c0.4,0,0.7-0.2,0.9-0.5c0.2-0.2,0.2-0.4,0.3-0.7
		c0-0.3,0.1-0.6,0.2-0.8c0.2-0.4,0.6-0.5,1-0.4c0.5,0.1,0.7,0.5,0.7,0.9c0,0.3,0.1,0.6,0.2,0.9c0.2,0.3,0.4,0.4,0.7,0.5
		c0.2,0.1,0.3,0.1,0.5,0.1c0.1,0,0.1,0,0.1,0.1c0,0.1,0,0.1-0.1,0.1c-0.4,0-0.8-0.1-1.1-0.4c-0.2-0.2-0.4-0.5-0.4-0.8
		c-0.1-0.2-0.1-0.4-0.1-0.7c-0.1-0.4-0.3-0.6-0.7-0.6c-0.2,0-0.4,0.1-0.5,0.3c-0.1,0.1-0.1,0.3-0.1,0.4c-0.1,0.3,0,0.5-0.2,0.8
		c-0.2,0.4-0.5,0.7-0.9,0.8c-0.5,0.1-1,0.1-1.4-0.1c-0.4-0.2-0.7-0.5-0.8-0.9c-0.1-0.2-0.1-0.4-0.1-0.6c-0.1-0.3-0.1-0.5-0.4-0.6
		c-0.4-0.1-0.8,0.1-0.9,0.5c-0.1,0.2-0.1,0.4-0.1,0.6c-0.1,0.4-0.3,0.8-0.7,1c-0.4,0.2-0.8,0.3-1.2,0.2c-0.4,0-0.7-0.2-1-0.4
		c-0.2-0.1-0.3-0.3-0.4-0.5c-0.1-0.2-0.1-0.5-0.1-0.8c0-0.2-0.1-0.5-0.4-0.6c-0.4-0.2-0.8-0.1-1,0.3c-0.1,0.2-0.1,0.4-0.1,0.5
		c0,0.6-0.4,1.1-1,1.3c-0.1,0-0.2,0.1-0.3,0.1C41.8,32.8,41.7,32.8,41.6,32.8z"/>
	<path class="st3" d="M39.1,29.7c0.4,0,0.8,0.1,1.1,0.3c0.3,0.2,0.5,0.4,0.6,0.8c0,0.2,0.1,0.5,0.1,0.7c0.1,0.2,0.2,0.4,0.3,0.5
		c0.2,0.2,0.5,0.1,0.7-0.2c0.2-0.2,0.2-0.5,0.3-0.8c0-0.4,0.2-0.8,0.6-1c0.4-0.3,0.9-0.4,1.4-0.3c0.5,0,0.9,0.2,1.2,0.6
		c0.2,0.2,0.3,0.5,0.3,0.8c0,0.3,0.1,0.6,0.2,0.8c0.2,0.3,0.4,0.4,0.7,0.2c0.2-0.1,0.3-0.3,0.3-0.5c0.1-0.3,0.1-0.5,0.1-0.8
		c0.1-0.2,0.2-0.4,0.4-0.6c0.2-0.2,0.5-0.3,0.8-0.4c0.3-0.1,0.5-0.1,0.8,0c0.3,0,0.5,0.1,0.7,0.3c0.3,0.2,0.5,0.5,0.6,0.8
		c0.1,0.2,0.1,0.5,0.1,0.7c0.1,0.2,0.2,0.4,0.3,0.5c0.2,0.2,0.6,0.1,0.7-0.2c0.2-0.3,0.2-0.5,0.3-0.8c0-0.3,0.1-0.5,0.3-0.8
		c0.3-0.3,0.6-0.5,1.1-0.5c0.5-0.1,1,0,1.4,0.3c0.4,0.2,0.6,0.5,0.6,1c0,0.3,0.1,0.6,0.2,0.9c0.1,0.2,0.2,0.3,0.5,0.3
		c0.1,0,0,0.1,0.1,0.2c0,0.1,0,0.1-0.1,0.1c-0.3,0-0.5-0.2-0.6-0.4c-0.2-0.3-0.2-0.6-0.3-1c0-0.3-0.2-0.6-0.4-0.7
		c-0.3-0.2-0.7-0.3-1-0.3c-0.5,0-0.9,0.1-1.3,0.5C52.1,30.6,52,30.8,52,31c-0.1,0.3-0.1,0.6-0.2,0.9c-0.2,0.4-0.5,0.6-1,0.5
		c-0.2-0.1-0.4-0.3-0.5-0.5c-0.1-0.2-0.2-0.5-0.2-0.8c-0.1-0.5-0.4-0.8-0.9-1c-0.2,0-0.3-0.1-0.5-0.1c-0.5,0-0.9,0.1-1.2,0.4
		c-0.2,0.2-0.3,0.4-0.3,0.7c0,0.3-0.1,0.6-0.2,0.9c-0.1,0.2-0.2,0.3-0.4,0.4c-0.3,0.1-0.6,0.1-0.8-0.2c-0.2-0.2-0.3-0.5-0.4-0.9
		c0-0.2,0-0.5-0.2-0.7c-0.2-0.3-0.4-0.4-0.7-0.5C44.3,30,44.1,30,44,30c-0.3,0-0.7,0.1-1,0.2c-0.3,0.2-0.5,0.4-0.6,0.7
		c0,0.1,0,0.2,0,0.3c0,0.4-0.2,0.8-0.5,1c-0.2,0.2-0.6,0.2-0.8,0c-0.3-0.2-0.4-0.5-0.5-0.8c-0.1-0.2-0.1-0.4-0.1-0.7
		c-0.1-0.2-0.2-0.4-0.4-0.6c-0.3-0.2-0.6-0.3-1-0.3c-0.4,0-0.8,0.1-1.2,0.5c-0.1,0.1-0.2,0.3-0.3,0.5c-0.1,0.3-0.1,0.6-0.2,0.8
		c-0.1,0.2-0.2,0.4-0.4,0.5c-0.1,0.1-0.2,0.1-0.3,0.1c0,0-0.1,0-0.1-0.1c0-0.1,0-0.1,0.1-0.2c0.4-0.1,0.5-0.4,0.6-0.7
		c0.1-0.2,0.1-0.5,0.1-0.8c0.1-0.2,0.2-0.4,0.4-0.5c0.2-0.2,0.5-0.3,0.8-0.4C38.8,29.8,39,29.7,39.1,29.7z"/>
</g>
</svg>
