<?xml version="1.0" encoding="utf-8"?>
<!-- Generator: Adobe Illustrator 26.0.2, SVG Export Plug-In . SVG Version: 6.00 Build 0)  -->
<svg version="1.1" id="Layer_1" xmlns="http://www.w3.org/2000/svg" xmlns:xlink="http://www.w3.org/1999/xlink" x="0px" y="0px"
	 viewBox="0 0 70 50" style="enable-background:new 0 0 70 50;" xml:space="preserve">
<style type="text/css">
	.st0{display:none;}
	.st1{display:inline;}
</style>
<g class="st0">
	<path class="st1" d="M69.4,39.2c-0.3,0.6-0.8,0.8-1.5,0.8c-1,0-2,0-3.1,0c-0.1,2.2-0.9,4.1-2.7,5.4c-1.3,1-2.8,1.5-4.4,1.4
		c-2.8-0.1-6.3-2.2-6.6-6.8c-8.1,0-16.1,0-24.2,0c-0.1,2.3-1,4.2-2.8,5.5c-1.3,1-2.8,1.4-4.4,1.3c-2.7-0.1-6.1-2.1-6.5-6.9
		c-0.2,0-0.5,0-0.7,0c-1.6,0-3.2,0-4.8,0c-1.6,0-2.5-0.9-2.5-2.5c0-0.7,0-1.4,0-2.1c-1,0-1.9,0-2.9,0c-0.3,0-0.5,0-0.8,0
		c-0.5-0.1-0.8-0.4-0.9-0.9c0-0.6,0.2-0.9,0.8-1.1c0.2-0.1,0.4-0.1,0.7-0.1c3.2,0,6.4,0,9.6,0c0.2,0,0.3,0,0.5,0
		c0.6,0.1,1,0.6,1,1.1c0,0.6-0.4,1-1.1,1c-1.3,0-2.6,0-3.9,0c-0.2,0-0.5,0-0.8,0c0,0.8,0,1.6,0,2.4c0.2,0,0.3,0.1,0.5,0.1
		c1.7,0,3.5,0,5.2,0c0.4,0,0.5-0.1,0.7-0.5c1.2-2.6,3.3-4.1,6.2-4.1c2.9,0,5.1,1.5,6.3,4.1c0.2,0.3,0.3,0.5,0.7,0.5
		c7.1,0,14.2,0,21.3,0c0.2,0,0.3,0,0.5,0c0-0.3,0-0.5,0-0.7c0-2.3,0-4.5,0-6.8c0-0.2,0-0.4,0-0.5c0.1-0.6,0.5-1.1,1.1-1.1
		c0.6,0,1.1,0.5,1.1,1.1c0,2.4,0,4.8,0,7.2c0,0.2,0,0.3,0,0.5c0,0.1,0.1,0.3,0.2,0.3c0.1,0,0.3-0.1,0.4-0.2c0.1,0,0.1-0.2,0.1-0.2
		c1.2-2.6,3.3-4.1,6.2-4.1c2.9,0,5.1,1.5,6.3,4.1c0.2,0.3,0.3,0.5,0.7,0.5c0.7,0,1.5,0,2.3,0c0-1.6,0-3.1,0-4.7c-0.4,0-0.8,0-1.2,0
		c-2-0.1-3.3-1.4-3.4-3.4c0-0.7,0-1.4,0-2.1c0-0.8,0.4-1.2,1.2-1.2c1,0,2,0,3.1,0c-0.2-0.7-0.5-1.3-1.1-1.6c-0.6-0.4-1.3-0.8-2-0.8
		c-4.2-0.1-8.4,0-12.6,0c-0.1,0-0.2,0-0.3,0.1c0,0.4,0,0.8,0,1.1c0,0.6-0.5,1.1-1,1.1c-0.6,0-1-0.4-1.1-1c0-0.2,0-0.4,0-0.6
		c0-6,0-12.1,0-18.1c0-0.3,0-0.5,0-0.8c-13.8,0-27.6,0-41.5,0c0,0.3,0,0.5,0,0.8c0,6.1,0,12.1,0,18.2c0,0.2,0,0.4,0,0.7
		c-0.1,0.6-0.4,0.9-1,1c-0.6,0-0.9-0.3-1.1-0.8c-0.1-0.2-0.1-0.5-0.1-0.7c0-6.2,0-12.4,0-18.6c0-1.7,0.9-2.6,2.6-2.6
		c13.6,0,27.1,0,40.7,0c1.7,0,2.6,0.8,2.6,2.5c0,0.6,0,1.3,0,2c0.3,0,0.5,0,0.8,0c2.3,0,4.6,0,6.9,0c2.9-0.1,5.4,1.9,4.9,5.8
		c0,0.4-0.4,0.7-0.7,1.1c0.5,2,1.1,4.3,1.6,6.5c0,0.2,0.2,0.4,0.4,0.4c2.4,0.6,3.9,2.1,4.4,4.5c0,0.1,0.1,0.1,0.1,0.2
		C69.4,30.8,69.4,35,69.4,39.2z M62.3,21.7c0-0.2-0.1-0.4-0.1-0.6c-0.5-1.9-1-3.8-1.4-5.8c-0.1-0.5-0.3-0.7-0.8-0.7
		c-2.7,0-5.5,0-8.2,0c-0.2,0-0.4,0-0.7,0c0,2.4,0,4.7,0,7C54.8,21.7,58.6,21.7,62.3,21.7z M58,44.7c2.5,0,4.7-2.1,4.7-4.7
		c0-2.5-2.1-4.6-4.7-4.6c-2.6,0-4.7,2.1-4.7,4.7C53.3,42.6,55.5,44.7,58,44.7z M20,44.7c2.6,0,4.7-2.1,4.7-4.6
		c0-2.5-2.1-4.6-4.6-4.7c-2.6,0-4.7,2.1-4.7,4.7C15.4,42.6,17.5,44.7,20,44.7z M51.1,10.1c0,0.9,0,1.6,0,2.4c3.5,0,6.9,0,10.4,0
		c0-1.4-1-2.4-2.4-2.4c-1.6,0-3.2,0-4.8,0C53.2,10.1,52.1,10.1,51.1,10.1z M67.2,28.5c-0.8,0-1.6,0-2.3,0c-0.3,2.1,0.3,2.6,2.3,2.3
		C67.2,30.1,67.2,29.3,67.2,28.5z"/>
	<path class="st1" d="M32.7,23.6c2.7-2.7,5.3-5.3,8-8c0.5-0.5,1-1,1.5-1.5c0.5-0.5,1.1-0.5,1.6-0.1c0.5,0.4,0.5,1.1,0,1.6
		c-3.4,3.4-6.8,6.8-10.2,10.2c-0.5,0.5-1.1,0.5-1.7,0c-1.9-1.8-3.7-3.7-5.6-5.5c-0.5-0.5-0.6-1.1-0.1-1.6c0.5-0.5,1.1-0.4,1.7,0.1
		c1.4,1.4,2.9,2.9,4.3,4.3C32.3,23.2,32.5,23.4,32.7,23.6z"/>
	<path class="st1" d="M35,35.3c-2.5,0-5,0-7.5,0c-0.2,0-0.4,0-0.7,0c-0.6-0.1-0.9-0.5-0.9-1c0-0.5,0.2-0.9,0.8-1
		c0.2-0.1,0.5-0.1,0.7-0.1c5.1,0,10.2,0,15.3,0c0.2,0,0.3,0,0.5,0c0.6,0.1,1,0.6,1,1.1c0,0.6-0.5,1-1.1,1c-0.8,0-1.6,0-2.4,0
		C38.7,35.3,36.9,35.3,35,35.3z"/>
	<path class="st1" d="M35,30.8c-2.2,0-4.4,0-6.7,0c-0.8,0-1.3-0.4-1.3-1.1c0-0.7,0.5-1.1,1.4-1.1c4.4,0,8.9,0,13.3,0
		c0.5,0,1,0.1,1.2,0.6c0.1,0.3,0.1,0.8-0.1,1c-0.2,0.3-0.7,0.5-1.1,0.5C39.5,30.8,37.3,30.8,35,30.8z"/>
	<path class="st1" d="M35,37.8c1.2,0,2.2,0.9,2.2,2.2c0,1.2-1,2.2-2.2,2.2c-1.2,0-2.2-1-2.3-2.2C32.8,38.8,33.8,37.8,35,37.8z"/>
</g>
<g>
	<path d="M10.9,3.5c-1.4,0-2.8,0-4.2,0c0,0.1,0,0.2,0,0.3c0,7.1,0,14.2,0,21.3c0,0.4,0,0.9,0,1.3c0,0.4-0.3,0.6-0.7,0.6
		c-0.4,0-0.7-0.2-0.7-0.6c0-0.1,0-0.2,0-0.3c0-7.4,0-14.9,0-22.3c0-0.1,0-0.3,0-0.4c-0.3,0-0.5,0-0.8,0c-0.4,0-0.8,0-1.3,0
		c-0.5,0-0.9-0.3-0.9-0.7c0-0.4,0.3-0.7,0.9-0.7c3.9,0,7.7,0,11.6,0c7.2,0,14.4,0,21.6,0c0.5,0,0.8,0.2,0.8,0.6
		c0.1,0.4-0.2,0.8-0.6,0.8c-0.1,0-0.2,0-0.3,0c-3.9,0-7.8,0-11.7,0c-0.4,0-0.3,0-0.3,0.3c0,3.1-0.3,6.1-0.9,9.1
		c-0.6,2.8-1.5,5.6-3,8c-1.6,2.7-3.8,4.7-6.5,6.3c-0.9,0.5-1.8,1-2.7,1.5c-0.2,0.1-0.4,0.3-0.6,0.4c-0.1,0.1-0.2,0.3-0.3,0.5
		c-0.1,0.3-0.3,0.5-0.6,0.5c-0.1,0-0.2,0-0.3,0c-1.7,0-3.5,0-5.2,0c-0.1,0-0.2,0-0.3,0c-0.4-0.1-0.6-0.4-0.6-0.7
		c0-0.4,0.3-0.7,0.7-0.7c0.7,0,1.5,0,2.2,0c0.9,0,1.8,0,2.7,0c0.1,0,0.2,0,0.2-0.1c0.4-0.6,1.1-1,1.7-1.3c1-0.6,2.1-1.1,3.1-1.7
		c2.8-1.7,4.8-4.1,6.2-7.1c1-2.2,1.7-4.6,2.1-7c0.4-2.5,0.6-5.1,0.7-7.7c0-0.2-0.1-0.3-0.3-0.3c-1.5,0-3,0-4.4,0c-0.1,0-0.2,0-0.3,0
		c0,0.7,0,1.3,0,1.9c-0.1,3-0.5,6-1.2,8.9c-1.3,4.8-3.7,9-7.4,12.3c-0.1,0.1-0.3,0.3-0.4,0.4c-0.3,0.2-0.6,0.2-0.9,0
		c-0.2-0.2-0.3-0.6-0.2-0.9c0.9-1.6,1.4-3.3,1.8-5c0.5-2,0.8-4,1.1-6C10.9,12,11,8.9,11,5.8C10.9,5.1,10.9,4.3,10.9,3.5z M10.5,23.2
		c0,0,0.1-0.1,0.1-0.1c0.6-0.8,1.2-1.6,1.8-2.4c2-3.1,3.1-6.6,3.6-10.3c0.3-1.6,0.4-3.3,0.5-4.9c0-0.7,0-1.3,0-2c-1.4,0-2.7,0-4.1,0
		C12.6,10.2,12.3,16.8,10.5,23.2z"/>
	<path d="M7.7,32.8c1.6,2,2.4,4.2,2.9,6.5c0.4,1.4,0.6,2.9,0.9,4.3c0.1,0.4-0.2,0.8-0.5,0.8c-0.4,0.1-0.8-0.2-0.9-0.6
		c-0.2-1-0.3-2-0.6-2.9c-0.4-1.9-1-3.7-1.8-5.5C7.5,35,7.3,34.6,7,34.2c0-0.1-0.1-0.1-0.2-0.2c0,0.1,0,0.2,0,0.2c0,4.2,0,8.5,0,12.7
		c0,0.1,0,0.2,0,0.4c-0.1,0.4-0.4,0.6-0.7,0.6c-0.4,0-0.6-0.3-0.7-0.7c0-0.2,0-0.4,0-0.6c0-4.5,0-9,0-13.5c0-0.1,0-0.2,0-0.3
		c-0.4,0-0.9,0-1.3,0c-0.3,0-0.5-0.1-0.7-0.3c-0.3-0.5,0-1.1,0.6-1.1c0.3,0,0.7,0,1,0c1.3,0,2.6,0,3.9,0c0.6,0,1.1,0.2,1.6,0.5
		c1.1,0.7,2,1.7,2.8,2.7c1.5,2.1,2.4,4.4,3,6.9c0.4,1.9,0.6,3.7,0.6,5.6c0,0.4-0.2,0.7-0.6,0.7c-0.3,0.1-0.7-0.1-0.8-0.4
		c0-0.1-0.1-0.2-0.1-0.4c-0.1-1.1-0.1-2.2-0.2-3.2c-0.4-3.2-1.4-6.2-3.4-8.7c-0.5-0.7-1.2-1.3-1.9-1.9C9.5,33,9,32.8,8.5,32.8
		C8.2,32.8,8,32.8,7.7,32.8z"/>
</g>
<g>
	<g transform="translate(0.000000,512.000000) scale(0.100000,-0.100000)">
		<g>
			<path d="M363,5002.5c-9.3-3.4-15.6-12.9-15.6-23.1c0-7.5,3.6-18.2,8-24.1c1.9-2.7,18.5-21,36.7-40.8l33.2-35.9l15.4,15.4
				c9.3,9.3,15.1,15.8,14.6,16.6c-0.4,0.8-13.2,19.1-28.6,40.8c-28.5,40.5-32.3,44.9-42.1,49.2
				C378.5,5003.3,367.7,5004.3,363,5002.5z M384.6,4994.5c2.4-0.9,6.2-3.4,8.5-5.8l4.2-4.3l-3.7-3.2c-3.9-3.2-5.4-3.9-5.4-2.3
				c0,1.6-9.6,11.7-13.5,14.1c-2,1.3-3.8,2.8-3.8,3.3C371.1,4997.6,378.8,4996.5,384.6,4994.5z"/>
			<path d="M554.2,4989.5c-3.9-0.9-6.6-2.9-15.4-11.4l-10.7-10.3l22.9-22.9l22.9-22.9l8.9,8.9c10.9,10.9,13.6,15.8,12.9,24l-0.5,5.9
				l-13.9,14c-7.9,8-15.1,14.2-16.6,14.5c-1.5,0.3-3.4,0.8-4.3,1C559.7,4990.4,556.8,4990.1,554.2,4989.5z"/>
			<path d="M442.1,4881.5l-78.1-78.1l22.9-22.8l22.8-22.9l78.3,78.4l78.4,78.3l-16.5,16.4l-16.4,16.5l-74.3-74.3l-74.2-74.2
				l-3.3,3.1l-3.3,3.1l74.4,74.4l74.4,74.4l-3.1,2.9c-1.6,1.6-3.2,2.9-3.6,2.9C520.4,4959.6,485.1,4924.5,442.1,4881.5z"/>
			<path d="M356.6,4794.7c-0.3-0.8-3.6-13.6-7.1-28.4c-3.6-14.8-6.8-27.7-7.1-28.6c-0.4-1.5,5-0.4,29.4,5.7
				c16.5,4.1,30,7.5,30.1,7.7c0.1,0.1-9.9,10.3-22.3,22.7C364.5,4789,357,4795.8,356.6,4794.7z"/>
			<path d="M542.6,4781.8c-6.6-2.5-16.5-11.1-19.1-16.5c-2.3-4.7-2.2-10.8,0-14.6c4-6.6,18.1-12.5,37.9-15.7
				c16.3-2.7,59.1-0.8,55.9,2.5c-0.3,0.3-5.5,1-11.4,1.4c-16.7,1.3-21.2,5.1-27.7,23.3c-4.4,12.3-7.4,16.8-13.4,19.8
				C559.4,4784.7,550,4784.7,542.6,4781.8z"/>
			<path d="M493.8,4827.7l-11.2-11.2l2.2-2.5c1.1-1.3,7.1-8.1,13.4-15c6.2-6.9,13.2-14.9,15.7-17.6c2.4-2.7,4.7-5,5.4-5
				c2.2,0,18.7,14.2,18.7,16.2c0,1.1-2.6,5.3-5.7,9.3c-3.2,4.1-10.2,13.9-15.7,21.6c-5.5,7.9-10.3,14.5-10.8,14.8
				C505.3,4838.7,499.9,4833.8,493.8,4827.7z"/>
		</g>
	</g>
</g>
</svg>
